<svg width="162" height="60" viewBox="0 0 162 60" fill="none" xmlns="http://www.w3.org/2000/svg">
<g clip-path="url(#clip0_260_3047)">
<path d="M39.6269 8.19533V27.1762C39.6269 27.6658 39.4242 28.1354 39.0631 28.4823C38.7021 28.8293 38.2121 29.0254 37.7003 29.0276H35.0368C34.7819 29.0287 34.5292 28.9817 34.2934 28.8891C34.0575 28.7966 33.8431 28.6604 33.6624 28.4883C33.4818 28.3163 33.3384 28.1119 33.2406 27.8867C33.1428 27.6615 33.0924 27.4201 33.0924 27.1762V8.19533C33.0913 7.9526 33.1402 7.71205 33.2365 7.48748C33.3328 7.26291 33.4745 7.05874 33.6536 6.88672C33.8326 6.71469 34.0454 6.57818 34.2797 6.48504C34.514 6.39189 34.7653 6.34395 35.019 6.34395H37.6825C37.9378 6.34169 38.1909 6.38798 38.4273 6.48012C38.6637 6.57226 38.8786 6.70841 39.0595 6.88066C39.2404 7.05291 39.3837 7.25784 39.4811 7.48353C39.5785 7.70921 39.6281 7.95117 39.6269 8.19533ZM28.085 6.34395C27.2844 6.34959 26.5022 6.57403 25.8305 6.99083C25.1588 7.40762 24.6257 7.99939 24.294 8.69639L17.1913 23.1338C17.0226 23.4735 16.6941 24.0255 16.41 24.0255C16.1259 24.0255 15.7974 23.4735 15.6287 23.1338L8.46388 8.69639C8.12962 7.99415 7.591 7.39885 6.9124 6.98167C6.23381 6.5645 5.44397 6.3431 4.63731 6.34395H0.5L11.7933 27.2611C12.9119 29.3163 15.2025 29.2739 16.3745 29.2739C17.9992 29.2739 19.9258 29.189 20.9024 27.2611L32.1957 6.34395H28.085ZM152.826 2.87049C152.826 2.38094 152.623 1.91132 152.262 1.56436C151.901 1.2174 151.411 1.02135 150.899 1.01911H148.236C147.724 1.02135 147.234 1.2174 146.873 1.56436C146.512 1.91132 146.309 2.38094 146.309 2.87049V21.6136C146.309 24.4841 147.366 26.1486 149.266 27.3461C151.166 28.5435 153.234 29.0446 157.203 29.0446H159.36C159.872 29.0379 160.36 28.8375 160.718 28.4874C161.076 28.1372 161.274 27.6658 161.269 27.1762V25.1635H159.644C158.472 25.1635 156.013 25.121 154.566 24.1783C152.657 22.9809 152.79 20.8493 152.79 19.3036L152.826 2.87049ZM110.956 25.1635C109.784 25.1635 107.324 25.121 105.868 24.1783C103.968 22.9809 104.093 20.8493 104.093 19.3036V10.1911H110.441C110.952 10.1911 111.442 9.99692 111.803 9.65131C112.164 9.3057 112.367 8.83696 112.367 8.34819V6.34395H104.093V2.87049C104.093 2.38094 103.89 1.91132 103.529 1.56436C103.168 1.2174 102.678 1.02135 102.166 1.01911H99.5025C98.9907 1.02135 98.5007 1.2174 98.1396 1.56436C97.7786 1.91132 97.5759 2.38094 97.5759 2.87049V6.34395H83.9565V2.87049C83.9565 2.38094 83.7538 1.91132 83.3927 1.56436C83.0317 1.2174 82.5417 1.02135 82.0299 1.01911H79.3664C78.8546 1.02135 78.3646 1.2174 78.0035 1.56436C77.6425 1.91132 77.4398 2.38094 77.4398 2.87049V6.34395H73.3025V8.34819C73.3024 8.59382 73.3537 8.83698 73.4533 9.06338C73.5528 9.28979 73.6987 9.49486 73.8824 9.66656C74.066 9.83825 74.2836 9.9731 74.5225 10.0632C74.7614 10.1533 75.0168 10.1967 75.2735 10.1911H77.422V21.6136C77.422 24.4841 78.4785 26.1486 80.3785 27.3461C82.2785 28.5435 84.3471 29.0446 88.369 29.0446H90.5176C91.0247 29.0312 91.5061 28.828 91.8581 28.4786C92.2101 28.1291 92.4046 27.6615 92.3998 27.1762V25.1635H90.7839C89.6031 25.1635 87.1438 25.121 85.6966 24.1783C83.7967 22.9809 83.921 20.8493 83.921 19.3036V10.1911H97.567V21.6136C97.567 24.4841 98.6235 26.1486 100.523 27.3461C102.423 28.5435 104.492 29.0446 108.461 29.0446H110.618C110.876 29.048 111.132 29.002 111.371 28.9095C111.61 28.8169 111.828 28.6795 112.01 28.5055C112.193 28.3314 112.338 28.1241 112.436 27.8959C112.534 27.6676 112.583 27.4229 112.58 27.1762V25.1635H110.956ZM37.7003 0H35.0368C34.5258 0 34.0358 0.194161 33.6745 0.539769C33.3132 0.885377 33.1102 1.35412 33.1102 1.84289V6.34395C33.3218 5.693 33.759 5.13047 34.3497 4.74914C34.9404 4.36781 35.6494 4.19044 36.3597 4.24628H37.7003C37.9533 4.24628 38.2038 4.19862 38.4376 4.106C38.6713 4.01339 38.8837 3.87764 39.0626 3.70651C39.2415 3.53539 39.3834 3.33223 39.4802 3.10864C39.5771 2.88505 39.6269 2.64541 39.6269 2.4034V1.84289C39.6269 1.35412 39.4239 0.885377 39.0626 0.539769C38.7013 0.194161 38.2113 0 37.7003 0ZM70.932 27.1762V25.1635H56.4336C54.0276 25.1635 51.2842 24.9087 50.4496 22.4713C50.1916 21.4479 50.0605 20.3989 50.0589 19.3461H67.3007C68.4335 19.4207 69.5587 19.1209 70.488 18.4968C70.9814 18.0739 71.3645 17.5465 71.6065 16.9566C71.8486 16.3667 71.9429 15.7308 71.8819 15.0998C71.8819 12.2293 71.1539 9.40976 67.6914 7.73673C64.9568 6.41189 61.3788 6.2845 57.9252 6.2845C55.1285 6.2845 50.1033 6.2845 46.8627 8.42463C43.6221 10.5648 43.3114 13.6815 43.3114 17.9193C43.3114 20.9172 43.4801 24.034 45.4333 26.1741C47.8926 28.8238 51.4706 29.0446 54.4892 29.0446H69.0054C69.2603 29.0435 69.5125 28.9942 69.7474 28.8996C69.9824 28.805 70.1955 28.6669 70.3745 28.4933C70.5535 28.3197 70.6949 28.114 70.7906 27.888C70.8862 27.6619 70.9343 27.4201 70.932 27.1762ZM65.1255 14.1826C65.1255 14.7771 64.9568 15.5074 63.6695 15.5074H54.3649C52.0033 15.5074 50.0856 16.5435 50.0856 17.8174V15.4989C50.1389 14.0042 50.0856 12.7643 51.4262 11.6093C53.2019 10.0637 55.8654 10.1062 57.6411 10.1062C59.4167 10.1062 61.6097 10.1911 63.2255 11.1338C63.7848 11.4459 64.2523 11.8884 64.5845 12.4201C64.9167 12.9517 65.1029 13.5551 65.1255 14.1741V14.1826ZM141.666 27.1762V25.1635H127.167C124.77 25.1635 122.027 24.9087 121.192 22.4713C120.93 21.4486 120.799 20.3991 120.802 19.3461H138.017C139.15 19.4207 140.275 19.1209 141.204 18.4968C141.697 18.0739 142.081 17.5465 142.323 16.9566C142.565 16.3667 142.659 15.7308 142.598 15.0998C142.598 12.2293 141.87 9.40976 138.407 7.73673C135.664 6.41189 132.086 6.2845 128.641 6.2845C125.845 6.2845 120.819 6.2845 117.57 8.42463C114.32 10.5648 114.019 13.6815 114.019 17.9193C114.019 20.9172 114.187 24.034 116.141 26.1741C118.6 28.8238 122.178 29.0446 125.196 29.0446H139.704C139.962 29.048 140.218 29.002 140.457 28.9095C140.696 28.8169 140.913 28.6795 141.096 28.5055C141.279 28.3314 141.423 28.1241 141.521 27.8959C141.619 27.6676 141.668 27.4229 141.666 27.1762ZM135.85 14.1826C135.85 14.7771 135.682 15.5074 134.403 15.5074H125.081C122.71 15.5074 120.802 16.5435 120.802 17.8174V15.4989C120.855 14.0042 120.802 12.7643 122.142 11.6093C123.918 10.0637 126.581 10.1062 128.357 10.1062C130.133 10.1062 132.326 10.1911 133.942 11.1338C134.5 11.4464 134.966 11.8892 135.297 12.4209C135.627 12.9526 135.812 13.5557 135.833 14.1741L135.85 14.1826Z" fill="#FF0022"/>
<path d="M66.3329 56.2888V54.3525H74.0837C74.4001 54.3576 74.7103 54.2686 74.9715 54.0977C75.0962 54.007 75.1955 53.8882 75.2606 53.7519C75.3256 53.6156 75.3545 53.466 75.3444 53.3164C75.351 53.1078 75.2956 52.9017 75.1846 52.722C75.0622 52.5355 74.8823 52.3901 74.6697 52.3058C74.4687 52.2126 74.261 52.1331 74.0482 52.068C73.8706 52.0171 73.5954 51.9491 73.2136 51.8727L72.459 51.7113L69.7955 51.0999C68.7286 50.9445 67.7254 50.5161 66.8923 49.86C66.3826 49.2681 66.1342 48.5095 66.1997 47.7453C66.1538 47.3299 66.2101 46.91 66.3643 46.5192C66.5185 46.1284 66.7662 45.7776 67.0876 45.4948C67.9907 44.9614 69.0482 44.7175 70.1062 44.7984H77.8748V46.7517H70.5679C70.1848 46.7263 69.8015 46.7996 69.4581 46.964C69.3287 47.0649 69.2288 47.1962 69.1681 47.345C69.1074 47.4938 69.0881 47.6551 69.1118 47.8132C69.112 47.961 69.1463 48.1069 69.2123 48.2405C69.2783 48.3742 69.3743 48.4921 69.4936 48.5861C69.7046 48.7722 69.952 48.9165 70.2216 49.0107L71.2693 49.291L74.2347 49.9873C74.8384 50.1317 75.3089 50.2506 75.6374 50.344C76.0221 50.4565 76.3987 50.5927 76.765 50.7517C77.1237 50.8938 77.4518 51.0982 77.7327 51.3546C77.97 51.604 78.1594 51.8915 78.2921 52.2039C78.4501 52.5818 78.5285 52.9859 78.5229 53.3929C78.5667 54.1793 78.2862 54.9508 77.7416 55.5415C77.3728 55.8307 76.9469 56.046 76.4893 56.1744C76.0317 56.3028 75.5518 56.3417 75.0781 56.2888H66.3329Z" fill="white"/>
<path d="M92.8349 56.2888H85.1728C84.2696 56.315 83.3685 56.1914 82.5093 55.9236C81.8583 55.7128 81.2971 55.3043 80.9112 54.7601C80.5455 54.2239 80.295 53.6234 80.1743 52.9937C80.029 52.1775 79.9636 51.3501 79.979 50.5223C79.979 48.2973 80.4851 46.7658 81.4972 45.9278C82.5093 45.0899 84.2169 44.6709 86.62 44.6709C88.3247 44.5766 90.025 44.9165 91.5475 45.6561C92.6839 46.3185 93.2521 47.5075 93.2521 49.223C93.2521 50.6667 92.5419 51.3886 91.1213 51.3886H83.1308C83.0686 52.1714 83.2743 52.9524 83.7168 53.6136C84.0298 53.8975 84.4049 54.111 84.8149 54.2389C85.225 54.3667 85.6596 54.4055 86.0873 54.3525H92.8349V56.2888ZM83.1219 49.4353H89.4345C89.5291 49.4454 89.625 49.4346 89.7146 49.4036C89.8043 49.3727 89.8852 49.3224 89.9513 49.2567C90.0174 49.1911 90.0668 49.1117 90.0957 49.0249C90.1246 48.938 90.1323 48.846 90.1181 48.7559C90.1267 48.4249 90.0371 48.0985 89.8595 47.8143C89.6819 47.5302 89.4237 47.3001 89.1148 47.1508C88.3445 46.7726 87.4852 46.5912 86.62 46.6242C85.6616 46.538 84.7016 46.7721 83.9032 47.2867C83.6189 47.5699 83.4019 47.9085 83.2671 48.2793C83.1323 48.6501 83.0827 49.0444 83.1219 49.4353Z" fill="white"/>
<path d="M106.49 46.7515H101.473C100.937 46.7413 100.401 46.8071 99.8843 46.9468C99.5098 47.0472 99.1598 47.2175 98.8544 47.4479C98.5866 47.677 98.3875 47.9701 98.2773 48.2972C98.1408 48.6238 98.0512 48.9666 98.0109 49.3163C98.0109 49.6475 98.0109 50.0551 98.0109 50.5477C98.0006 51.0589 98.0332 51.5701 98.1086 52.0763C98.1859 52.4883 98.3361 52.8846 98.5525 53.2483C98.7918 53.6461 99.1733 53.9477 99.6268 54.0976C100.234 54.2984 100.875 54.3905 101.518 54.3693H106.845V56.3226H100.763C98.5614 56.3226 97.0284 55.8357 96.1642 54.8619C95.2075 53.6209 94.7447 52.0942 94.8591 50.5562C94.7519 49.0373 95.2147 47.5316 96.1642 46.3099C97.0225 45.3417 98.5555 44.8577 100.763 44.8577H106.534L106.49 46.7515Z" fill="white"/>
<path d="M121.352 44.7983V54.3525C121.352 55.6603 120.571 56.3058 119.008 56.3058H113.974C112.599 56.3954 111.226 56.1003 110.023 55.4565C109.534 55.1119 109.147 54.6508 108.901 54.119C108.655 53.5872 108.558 53.0031 108.621 52.4247V44.7983H111.657V51.6943C111.625 52.0532 111.668 52.4145 111.784 52.7572C111.9 53.0999 112.086 53.417 112.332 53.6901C112.951 54.1756 113.745 54.4075 114.542 54.3355H117.534C118.049 54.3355 118.307 54.1232 118.307 53.6901V44.7983H121.352Z" fill="white"/>
<path d="M123.74 56.2888V49.138C123.687 48.5269 123.784 47.9123 124.023 47.3432C124.262 46.7741 124.636 46.2662 125.117 45.8599C126.354 45.0855 127.823 44.7215 129.298 44.8238H131.358V46.7771H130.124C129.206 46.6915 128.29 46.9572 127.576 47.5159C127.022 48.167 126.755 48.9983 126.83 49.8344V56.3142L123.74 56.2888Z" fill="white"/>
<path d="M135.593 43.3121H132.548V40.9426H135.593V43.3121ZM132.548 56.3142V44.7983H135.593V56.2887L132.548 56.3142Z" fill="white"/>
<path d="M145.652 56.2888H143.752C142.437 56.3761 141.124 56.08 139.988 55.4396C139.534 55.1039 139.176 54.6639 138.948 54.1606C138.72 53.6572 138.629 53.1068 138.683 52.5606V46.7517H136.783V44.7984H138.683V41.1211H141.728V44.8069H145.652V46.7517H141.728V52.0171C141.693 52.3534 141.746 52.6927 141.881 53.0052C142.015 53.3176 142.228 53.5936 142.5 53.809C143.225 54.2148 144.06 54.4014 144.898 54.344H145.652V56.2888Z" fill="white"/>
<path d="M161.5 44.8069L153.287 60.0001H150.198L152.32 56.2464L146.185 44.8069H149.328L153.767 53.6222L158.446 44.8069H161.5Z" fill="white"/>
</g>
<defs>
<clipPath id="clip0_260_3047">
<rect width="161" height="60" fill="white" transform="translate(0.5)"/>
</clipPath>
</defs>
</svg>
